<svg viewBox="0 0 326 328" fill="none" xmlns="http://www.w3.org/2000/svg">
<path d="M199.986 23.1711L200.432 23.4228L200.944 23.4292L243.35 23.9577L265.01 60.6478L265.269 61.0865L265.707 61.3478L302.176 83.143L302.701 125.823L302.708 126.33L302.954 126.772L323.71 164L302.954 201.228L302.708 201.67L302.701 202.177L302.176 244.857L265.707 266.652L265.269 266.914L265.01 267.352L243.35 304.042L200.944 304.571L200.432 304.577L199.986 304.829L163 325.703L126.014 304.829L125.568 304.577L125.056 304.571L82.6502 304.042L60.9897 267.352L60.7307 266.914L60.2934 266.652L23.8239 244.857L23.2985 202.177L23.2923 201.67L23.0455 201.228L2.28984 164L23.0455 126.772L23.2923 126.33L23.2985 125.823L23.8239 83.143L60.2934 61.3478L60.7307 61.0865L60.9897 60.6478L82.6502 23.9577L125.056 23.4292L125.568 23.4228L126.014 23.1711L163 2.29656L199.986 23.1711Z" stroke="#FEE0E0" stroke-width="4"/>
<path d="M163 11L198.406 30.8613L239 31.3641L259.732 66.2678L294.636 87L295.139 127.594L315 163L295.139 198.406L294.636 239L259.732 259.732L239 294.636L198.406 295.139L163 315L127.594 295.139L87 294.636L66.2678 259.732L31.3641 239L30.8613 198.406L11 163L30.8613 127.594L31.3641 87L66.2678 66.2678L87 31.3641L127.594 30.8613L163 11Z" fill="#F976AC"/>
</svg>
